<svg width="46" height="47" viewBox="0 0 46 47" fill="none" xmlns="http://www.w3.org/2000/svg">
<g opacity="0.3" filter="url(#filter0_f_3590_48989)">
<path d="M22.4622 10.646C22.8199 10.6138 23.1797 10.6138 23.5374 10.646L23.7122 10.6616C24.07 10.6938 24.4245 10.7584 24.7708 10.854L24.9388 10.8999C25.2851 10.9954 25.6229 11.1229 25.9466 11.2788L26.1038 11.354C26.4275 11.5099 26.737 11.6945 27.0276 11.9057L27.1683 12.0083C27.4589 12.2194 27.7305 12.4566 27.9788 12.7163L28.0999 12.8432C28.3481 13.1028 28.573 13.3843 28.7708 13.684L28.8665 13.8296C29.0644 14.1293 29.2351 14.4466 29.3763 14.7768L29.4456 14.938C29.5868 15.2683 29.6977 15.6112 29.7776 15.9614L29.8167 16.1313C29.8966 16.4816 29.9451 16.8388 29.9612 17.1977L29.969 17.3725C29.9851 17.7313 29.9684 18.0908 29.9202 18.4467L29.8968 18.6206C29.8486 18.9763 29.7684 19.327 29.6575 19.6684L29.6038 19.8354C29.4928 20.1771 29.3512 20.5083 29.181 20.8247L29.098 20.978C28.9277 21.2944 28.7292 21.5955 28.5052 21.8764L28.3958 22.0131C28.1719 22.2939 27.9231 22.5542 27.6526 22.7905L27.5208 22.9057C27.2503 23.142 26.959 23.3534 26.6507 23.5376L26.5003 23.6274C26.192 23.8116 25.8678 23.968 25.5315 24.0942L25.3675 24.1557C25.0313 24.2819 24.6846 24.3777 24.3313 24.4419L24.1585 24.4731C23.8051 24.5372 23.4464 24.5698 23.0872 24.5698H22.9124C22.5532 24.5698 22.1946 24.5372 21.8411 24.4731L21.6692 24.4419C21.3157 24.3777 20.9685 24.282 20.6321 24.1557L20.4681 24.0942C20.1318 23.968 19.8076 23.8116 19.4993 23.6274L19.3489 23.5376C19.0406 23.3533 18.7493 23.142 18.4788 22.9057L18.347 22.7905C18.0765 22.5542 17.8278 22.294 17.6038 22.0131L17.4944 21.8764C17.2704 21.5955 17.0719 21.2944 16.9017 20.978L16.8196 20.8247C16.6494 20.5084 16.5078 20.177 16.3968 19.8354L16.3421 19.6684C16.2312 19.327 16.151 18.9763 16.1028 18.6206L16.0794 18.4467C16.0312 18.0908 16.0154 17.7313 16.0315 17.3725L16.0394 17.1977C16.0555 16.8388 16.1039 16.4816 16.1839 16.1313L16.222 15.9614C16.3019 15.6111 16.4138 15.2683 16.555 14.938L16.6233 14.7768C16.7645 14.4465 16.9352 14.1294 17.1331 13.8296L17.2298 13.684C17.4277 13.3842 17.6524 13.1029 17.9007 12.8432L18.0208 12.7163C18.2691 12.4566 18.5407 12.2194 18.8313 12.0083L18.973 11.9057C19.2635 11.6947 19.5723 11.5098 19.8958 11.354L20.054 11.2788C20.3777 11.1229 20.7145 10.9954 21.0608 10.8999L21.2298 10.854C21.5761 10.7584 21.9306 10.6938 22.2884 10.6616L22.4622 10.646Z" fill="#6B3D0F"/>
</g>
<g opacity="0.4" filter="url(#filter1_f_3590_48989)">
<path d="M22.4624 15.646C22.8201 15.6138 23.1799 15.6138 23.5376 15.646L23.8911 15.6782C24.2486 15.7104 24.6027 15.7741 24.9487 15.8696L25.2905 15.9643C25.6368 16.0599 25.9737 16.1864 26.2974 16.3422L26.6167 16.4956C26.9404 16.6515 27.2499 16.8361 27.5405 17.0473L27.8266 17.2553C28.1173 17.4665 28.3889 17.7037 28.6372 17.9633L28.8813 18.2192C29.1296 18.4788 29.3543 18.7603 29.5522 19.06L29.7475 19.3559C29.9455 19.6557 30.1161 19.9728 30.2573 20.3032L30.396 20.6294C30.5371 20.9596 30.6491 21.3017 30.729 21.6518L30.8071 21.9975C30.887 22.3477 30.9355 22.7042 30.9516 23.063L30.9673 23.4174C30.9834 23.7762 30.9676 24.1357 30.9194 24.4917L30.8716 24.8422C30.8234 25.1982 30.7433 25.5494 30.6323 25.8911L30.5229 26.228C30.4119 26.5697 30.2703 26.9009 30.1001 27.2172L29.9321 27.5297C29.7619 27.8459 29.5642 28.1465 29.3403 28.4272L29.1186 28.7036C28.8946 28.9845 28.646 29.2455 28.3755 29.4819L28.1089 29.7143C27.8383 29.9507 27.5472 30.1629 27.2388 30.3471L26.935 30.5288C26.6266 30.713 26.3017 30.8693 25.9653 30.9956L25.6343 31.1196C25.298 31.2458 24.9506 31.3416 24.5972 31.4057L24.2485 31.4692C23.8951 31.5333 23.5365 31.5659 23.1772 31.5659H22.8227C22.4635 31.5659 22.1049 31.5333 21.7515 31.4692L21.4028 31.4057C21.0494 31.3416 20.702 31.2458 20.3657 31.1196L20.0347 30.9956C19.6983 30.8693 19.3734 30.713 19.0649 30.5288L18.7612 30.3471C18.4528 30.1629 18.1617 29.9507 17.8911 29.7143L17.6245 29.4819C17.3539 29.2455 17.1053 28.9845 16.8813 28.7036L16.6597 28.4272C16.4358 28.1465 16.238 27.8459 16.0679 27.5297L15.8999 27.2172C15.7296 26.9009 15.5881 26.5697 15.477 26.228L15.3677 25.8911C15.2567 25.5494 15.1766 25.1982 15.1284 24.8422L15.0806 24.4917C15.0323 24.1357 15.0166 23.7762 15.0327 23.4174L15.0483 23.063C15.0645 22.7042 15.113 22.3477 15.1929 21.9975L15.271 21.6518C15.3509 21.3017 15.4629 20.9596 15.604 20.6294L15.7427 20.3032C15.8839 19.9728 16.0545 19.6557 16.2524 19.3559L16.4477 19.06C16.6456 18.7603 16.8704 18.4788 17.1186 18.2192L17.3638 17.9633C17.612 17.7037 17.8828 17.4664 18.1733 17.2553L18.4595 17.0473C18.7501 16.8361 19.0596 16.6515 19.3833 16.4956L19.7026 16.3422C20.0263 16.1864 20.3632 16.0599 20.7095 15.9643L21.0513 15.8696C21.3975 15.7741 21.7521 15.7104 22.1099 15.6782L22.4624 15.646Z" fill="#6B3D0F"/>
</g>
<path d="M22.4619 2.64598C22.8198 2.61377 23.1803 2.61377 23.5381 2.64598L24.4258 2.72606C24.7836 2.75826 25.1381 2.82288 25.4844 2.91844L26.3448 3.15575C26.691 3.25132 27.028 3.37783 27.3516 3.53368L28.1553 3.92039C28.479 4.07628 28.7885 4.26097 29.0791 4.47215L29.8008 4.99657C30.0914 5.20769 30.3622 5.44498 30.6104 5.70457L31.2266 6.34911C31.4749 6.60877 31.6996 6.89011 31.8975 7.18993L32.3887 7.93407C32.5866 8.23379 32.7573 8.5511 32.8985 8.88133L33.2491 9.70164C33.3903 10.032 33.5021 10.3748 33.5821 10.7251L33.7803 11.5942C33.8603 11.9445 33.9087 12.3017 33.9248 12.6606L33.9649 13.5513C33.981 13.9102 33.9643 14.2704 33.916 14.6264L33.7969 15.5102C33.7487 15.8663 33.6687 16.2174 33.5577 16.5591L33.2813 17.4077C33.1703 17.7492 33.0286 18.0798 32.8584 18.396L32.4366 19.1821C32.2663 19.4984 32.0677 19.7987 31.8438 20.0796L31.2871 20.7768C31.0632 21.0577 30.8145 21.3178 30.544 21.5542L29.8721 22.1411C29.6015 22.3775 29.3104 22.5896 29.002 22.7739L28.2364 23.2309C27.9281 23.4151 27.6038 23.5715 27.2676 23.6977L26.4317 24.0112C26.0955 24.1374 25.7488 24.2332 25.3955 24.2973L24.5176 24.4565C24.1642 24.5207 23.8055 24.5532 23.4463 24.5532H22.5537C22.1945 24.5532 21.8359 24.5207 21.4825 24.4565L20.6045 24.2973C20.2513 24.2332 19.9046 24.1374 19.5684 24.0112L18.7325 23.6977C18.3962 23.5715 18.072 23.4151 17.7637 23.2309L16.9981 22.7739C16.6897 22.5896 16.3985 22.3775 16.128 22.1411L15.4561 21.5542C15.1856 21.3178 14.9369 21.0577 14.7129 20.7768L14.1563 20.0796C13.9323 19.7987 13.7337 19.4984 13.5635 19.1821L13.1407 18.396C12.9706 18.0799 12.8297 17.749 12.7188 17.4077L12.4424 16.5591C12.3314 16.2174 12.2514 15.8663 12.2032 15.5102L12.084 14.6264C12.0358 14.2704 12.0191 13.9102 12.0352 13.5513L12.0752 12.6606C12.0913 12.3017 12.1398 11.9445 12.2198 11.5942L12.418 10.7251C12.4979 10.3748 12.6098 10.032 12.751 9.70164L13.1016 8.88133C13.2428 8.55111 13.4135 8.23379 13.6114 7.93407L14.1026 7.18993C14.3005 6.89012 14.5252 6.60876 14.7735 6.34911L15.3897 5.70457C15.6379 5.44496 15.9087 5.2077 16.1993 4.99657L16.9209 4.47215C17.2116 4.26097 17.5211 4.07628 17.8448 3.92039L18.6485 3.53368C18.9721 3.37782 19.309 3.25132 19.6553 3.15575L20.5157 2.91844C20.8618 2.82293 21.2157 2.75827 21.5733 2.72606L22.4619 2.64598Z" fill="url(#paint0_linear_3590_48989)"/>
<g clip-path="url(#clip0_3590_48989)">
<path d="M26.6452 12.5871C26.8073 11.5035 25.9823 10.921 24.8542 10.5325L25.2202 9.06464L24.3266 8.842L23.9704 10.2712C23.7355 10.2126 23.4943 10.1574 23.2545 10.1027L23.6133 8.66405L22.7204 8.44141L22.3542 9.90876C22.1598 9.86451 21.9689 9.82077 21.7837 9.77468L21.7847 9.77006L20.5525 9.46236L20.3149 10.4167C20.3149 10.4167 20.9778 10.5687 20.9638 10.578C21.3256 10.6683 21.3911 10.9078 21.3802 11.0977L20.9633 12.7699C20.9882 12.7762 21.0206 12.7854 21.0562 12.7997C21.0264 12.7923 20.9947 12.7842 20.9618 12.7763L20.3775 15.1189C20.3332 15.2288 20.221 15.3938 19.968 15.3311C19.977 15.3441 19.3186 15.1691 19.3186 15.1691L18.875 16.1918L20.0378 16.4817C20.2541 16.536 20.4661 16.5927 20.6748 16.6461L20.3051 18.1308L21.1975 18.3534L21.5637 16.8845C21.8075 16.9507 22.0441 17.0117 22.2758 17.0693L21.9108 18.5313L22.8044 18.7539L23.1741 17.272C24.6977 17.5604 25.8434 17.4441 26.3256 16.066C26.7142 14.9564 26.3063 14.3165 25.5047 13.8991C26.0885 13.7645 26.528 13.3803 26.6452 12.5871ZM24.6037 15.4498C24.3276 16.5594 22.4595 15.9596 21.8538 15.8092L22.3444 13.8422C22.9501 13.9934 24.8923 14.2926 24.6037 15.4498ZM24.8801 12.571C24.6282 13.5803 23.0733 13.0676 22.5689 12.9418L23.0138 11.1579C23.5181 11.2837 25.1424 11.5183 24.8801 12.571Z" fill="#FAFAFA"/>
</g>
<defs>
<filter id="filter0_f_3590_48989" x="10.0255" y="4.62183" width="25.9495" height="25.948" filterUnits="userSpaceOnUse" color-interpolation-filters="sRGB">
<feFlood flood-opacity="0" result="BackgroundImageFix"/>
<feBlend mode="normal" in="SourceGraphic" in2="BackgroundImageFix" result="shape"/>
<feGaussianBlur stdDeviation="3" result="effect1_foregroundBlur_3590_48989"/>
</filter>
<filter id="filter1_f_3590_48989" x="0.0266113" y="0.621826" width="45.9468" height="45.9441" filterUnits="userSpaceOnUse" color-interpolation-filters="sRGB">
<feFlood flood-opacity="0" result="BackgroundImageFix"/>
<feBlend mode="normal" in="SourceGraphic" in2="BackgroundImageFix" result="shape"/>
<feGaussianBlur stdDeviation="7.5" result="effect1_foregroundBlur_3590_48989"/>
</filter>
<linearGradient id="paint0_linear_3590_48989" x1="23" y1="2.62183" x2="23" y2="24.5532" gradientUnits="userSpaceOnUse">
<stop stop-color="#F4BA45"/>
<stop offset="1" stop-color="#F19C3B"/>
</linearGradient>
<clipPath id="clip0_3590_48989">
<rect width="11" height="11" fill="white" transform="translate(17.5 8.09766)"/>
</clipPath>
</defs>
</svg>
