<svg width="46" height="47" viewBox="0 0 46 47" fill="none" xmlns="http://www.w3.org/2000/svg">
<g opacity="0.3" filter="url(#filter0_f_3590_49052)">
<path d="M22.4619 10.6465C22.8198 10.6143 23.1803 10.6143 23.5381 10.6465L23.7119 10.6621C24.0697 10.6943 24.4242 10.7579 24.7705 10.8535L24.9395 10.9004C25.2857 10.9959 25.6227 11.1225 25.9463 11.2783L26.1035 11.3545C26.4272 11.5104 26.7367 11.6951 27.0273 11.9062L27.1689 12.0088C27.4595 12.2199 27.7303 12.4571 27.9785 12.7168L28.0996 12.8428C28.3479 13.1024 28.5726 13.3838 28.7705 13.6836L28.8662 13.8301C29.0641 14.1299 29.2348 14.447 29.376 14.7773L29.4453 14.9375C29.5865 15.2678 29.6974 15.6107 29.7773 15.9609L29.8164 16.1318C29.8963 16.4819 29.9448 16.8385 29.9609 17.1973L29.9688 17.3721C29.9849 17.731 29.9691 18.0912 29.9209 18.4473L29.8975 18.6201C29.8492 18.9761 29.7683 19.3272 29.6572 19.6689L29.6035 19.8349C29.4925 20.1766 29.3509 20.5078 29.1807 20.8242L29.0977 20.9785C28.9274 21.2948 28.7288 21.5951 28.5049 21.876L28.3965 22.0127C28.1726 22.2934 27.9237 22.5537 27.6533 22.79L27.5215 22.9053C27.251 23.1416 26.9597 23.3538 26.6514 23.5381L26.501 23.6279C26.1926 23.8122 25.8676 23.9675 25.5313 24.0937L25.3682 24.1553C25.0319 24.2815 24.6845 24.3772 24.3311 24.4414L24.1592 24.4726C23.8058 24.5368 23.447 24.5693 23.0879 24.5693H22.9121C22.553 24.5693 22.1942 24.5368 21.8408 24.4726L21.6689 24.4414C21.3155 24.3772 20.9681 24.2815 20.6318 24.1553L20.4688 24.0937C20.1324 23.9675 19.8074 23.8122 19.499 23.6279L19.3486 23.5381C19.0403 23.3538 18.749 23.1416 18.4785 22.9053L18.3467 22.79C18.0763 22.5537 17.8274 22.2934 17.6035 22.0127L17.4951 21.876C17.2712 21.5951 17.0726 21.2948 16.9023 20.9785L16.8193 20.8242C16.6491 20.5078 16.5075 20.1766 16.3965 19.8349L16.3428 19.6689C16.2318 19.3272 16.1508 18.9761 16.1025 18.6201L16.0791 18.4473C16.0309 18.0912 16.0151 17.731 16.0313 17.3721L16.0391 17.1973C16.0552 16.8385 16.1037 16.4819 16.1836 16.1318L16.2227 15.9609C16.3026 15.6107 16.4135 15.2678 16.5547 14.9375L16.624 14.7773C16.7652 14.447 16.9359 14.1299 17.1338 13.8301L17.2295 13.6836C17.4274 13.3838 17.6521 13.1024 17.9004 12.8428L18.0215 12.7168C18.2697 12.4572 18.5405 12.2199 18.8311 12.0088L18.9727 11.9062C19.2633 11.6951 19.5728 11.5104 19.8965 11.3545L20.0537 11.2783C20.3773 11.1225 20.7143 10.9959 21.0605 10.9004L21.2295 10.8535C21.5758 10.7579 21.9303 10.6943 22.2881 10.6621L22.4619 10.6465Z" fill="#451FAD"/>
</g>
<g opacity="0.4" filter="url(#filter1_f_3590_49052)">
<path d="M22.4619 15.6465C22.8197 15.6143 23.1802 15.6143 23.5381 15.6465L23.8906 15.6777C24.2484 15.7099 24.6029 15.7745 24.9492 15.8701L25.29 15.9639C25.6364 16.0594 25.9741 16.1859 26.2978 16.3418L26.6162 16.4961C26.9399 16.652 27.2494 16.8367 27.54 17.0478L27.8262 17.2558C28.1168 17.467 28.3884 17.7042 28.6367 17.9639L28.8818 18.2197C29.13 18.4793 29.3539 18.7608 29.5517 19.0605L29.7471 19.3564C29.9449 19.6562 30.1157 19.9734 30.2568 20.3037L30.3965 20.6289C30.5377 20.9592 30.6486 21.3021 30.7285 21.6523L30.8076 21.9971C30.8876 22.3473 30.936 22.7045 30.9521 23.0635L30.9678 23.417C30.9839 23.7757 30.9681 24.1353 30.9199 24.4912L30.8721 24.8428C30.8238 25.1988 30.7438 25.5499 30.6328 25.8916L30.5234 26.2285C30.4124 26.5702 30.2708 26.9014 30.1006 27.2178L29.9326 27.5293C29.7624 27.8456 29.5638 28.1459 29.3398 28.4267L29.1191 28.7041C28.8952 28.9849 28.6465 29.2451 28.376 29.4814L28.1094 29.7148C27.8388 29.9512 27.5467 30.1624 27.2383 30.3467L26.9346 30.5283C26.6262 30.7125 26.3021 30.8689 25.9658 30.9951L25.6338 31.1191C25.2974 31.2454 24.9502 31.3421 24.5967 31.4062L24.248 31.4687C23.8946 31.5328 23.5359 31.5654 23.1767 31.5654H22.8232C22.4641 31.5654 22.1053 31.5328 21.7519 31.4687L21.4033 31.4062C21.0498 31.3421 20.7026 31.2454 20.3662 31.1191L20.0342 30.9951C19.6979 30.8689 19.3738 30.7125 19.0654 30.5283L18.7617 30.3467C18.4533 30.1624 18.1612 29.9512 17.8906 29.7148L17.624 29.4814C17.3535 29.2451 17.1048 28.9849 16.8809 28.7041L16.6601 28.4267C16.4362 28.1459 16.2376 27.8456 16.0674 27.5293L15.8994 27.2178C15.7292 26.9014 15.5876 26.5702 15.4766 26.2285L15.3672 25.8916C15.2562 25.5499 15.1761 25.1988 15.1279 24.8428L15.0801 24.4912C15.0319 24.1353 15.0161 23.7757 15.0322 23.417L15.0478 23.0635C15.064 22.7045 15.1124 22.3473 15.1924 21.9971L15.2715 21.6523C15.3514 21.3021 15.4623 20.9592 15.6035 20.6289L15.7432 20.3037C15.8843 19.9734 16.055 19.6562 16.2529 19.3564L16.4482 19.0605C16.6461 18.7608 16.87 18.4793 17.1182 18.2197L17.3633 17.9639C17.6116 17.7042 17.8832 17.467 18.1738 17.2558L18.46 17.0478C18.7506 16.8367 19.0601 16.652 19.3838 16.4961L19.7021 16.3418C20.0258 16.1859 20.3636 16.0594 20.71 15.9639L21.0508 15.8701C21.3971 15.7745 21.7515 15.7099 22.1094 15.6777L22.4619 15.6465Z" fill="#451FAD"/>
</g>
<path d="M22.4619 2.64647C22.8198 2.61426 23.1803 2.61426 23.5381 2.64647L24.4268 2.72557C24.7844 2.75778 25.1383 2.82246 25.4844 2.91795L26.3448 3.15526C26.691 3.25082 27.028 3.37735 27.3516 3.53319L28.1553 3.92088C28.479 4.07676 28.7885 4.26051 29.0791 4.47166L29.8008 4.99608C30.0914 5.20722 30.3621 5.44446 30.6104 5.70409L31.2266 6.34862C31.4749 6.60831 31.6996 6.89057 31.8975 7.19041L32.3887 7.93455C32.5866 8.2344 32.7573 8.55145 32.8985 8.88182L33.249 9.70213C33.3902 10.0324 33.5021 10.3744 33.5821 10.7246L33.7803 11.5947C33.8602 11.9448 33.9087 12.3014 33.9248 12.6601L33.9649 13.5517C33.981 13.9106 33.9642 14.27 33.916 14.626L33.7969 15.5107C33.7487 15.8665 33.6685 16.2172 33.5576 16.5586L33.2813 17.4072C33.1703 17.7488 33.0296 18.0801 32.8594 18.3965L32.4365 19.1816C32.2663 19.498 32.0678 19.7992 31.8438 20.0801L31.2871 20.7773C31.0632 21.0581 30.8144 21.3184 30.544 21.5547L29.8721 22.1416C29.6016 22.3779 29.3103 22.5892 29.002 22.7734L28.2364 23.2314C27.928 23.4156 27.6039 23.572 27.2676 23.6982L26.4317 24.0117C26.0955 24.1378 25.7488 24.2337 25.3955 24.2978L24.5176 24.457C24.1642 24.5212 23.8055 24.5537 23.4463 24.5537H22.5537C22.1945 24.5537 21.8359 24.5212 21.4824 24.457L20.6045 24.2978C20.2513 24.2337 19.9045 24.1378 19.5684 24.0117L18.7324 23.6982C18.3962 23.572 18.072 23.4156 17.7637 23.2314L16.9981 22.7734C16.6897 22.5892 16.3985 22.3779 16.128 22.1416L15.4561 21.5547C15.1856 21.3184 14.9369 21.0581 14.7129 20.7773L14.1563 20.0801C13.9323 19.7992 13.7338 19.498 13.5635 19.1816L13.1407 18.3965C12.9704 18.0801 12.8298 17.7488 12.7188 17.4072L12.4424 16.5586C12.3315 16.2172 12.2514 15.8665 12.2032 15.5107L12.084 14.626C12.0358 14.27 12.0191 13.9106 12.0352 13.5517L12.0752 12.6601C12.0914 12.3014 12.1398 11.9448 12.2198 11.5947L12.418 10.7246C12.4979 10.3744 12.6098 10.0324 12.751 9.70213L13.1016 8.88182C13.2428 8.55145 13.4134 8.2344 13.6114 7.93455L14.1026 7.19041C14.3005 6.89057 14.5252 6.6083 14.7735 6.34862L15.3897 5.70409C15.6379 5.44446 15.9086 5.20722 16.1992 4.99608L16.9209 4.47166C17.2116 4.26051 17.5211 4.07676 17.8448 3.92088L18.6485 3.53319C18.9721 3.37735 19.3091 3.25082 19.6553 3.15526L20.5157 2.91795C20.8617 2.82246 21.2157 2.75778 21.5733 2.72557L22.4619 2.64647Z" fill="url(#paint0_linear_3590_49052)"/>
<g clip-path="url(#clip0_3590_49052)">
<path d="M19.9063 13.693L23.0714 8.44141V8.4439L23.0721 8.44141L26.2367 13.6923L26.2384 13.6931L23.0733 15.564V15.5634L23.0721 15.5641L23.0714 15.5633V15.564L19.9063 13.693Z" fill="#FAFAFA"/>
<path d="M23.0714 18.7517V18.7539L19.9062 14.2937L23.0714 16.1636V16.1645L23.0722 16.1636L26.2392 14.2937L23.0722 18.7539L23.0714 18.7517Z" fill="#FAFAFA"/>
</g>
<defs>
<filter id="filter0_f_3590_49052" x="10.0251" y="4.62231" width="25.9497" height="25.947" filterUnits="userSpaceOnUse" color-interpolation-filters="sRGB">
<feFlood flood-opacity="0" result="BackgroundImageFix"/>
<feBlend mode="normal" in="SourceGraphic" in2="BackgroundImageFix" result="shape"/>
<feGaussianBlur stdDeviation="3" result="effect1_foregroundBlur_3590_49052"/>
</filter>
<filter id="filter1_f_3590_49052" x="0.026123" y="0.622314" width="45.9478" height="45.9431" filterUnits="userSpaceOnUse" color-interpolation-filters="sRGB">
<feFlood flood-opacity="0" result="BackgroundImageFix"/>
<feBlend mode="normal" in="SourceGraphic" in2="BackgroundImageFix" result="shape"/>
<feGaussianBlur stdDeviation="7.5" result="effect1_foregroundBlur_3590_49052"/>
</filter>
<linearGradient id="paint0_linear_3590_49052" x1="23" y1="2.62231" x2="23" y2="24.5537" gradientUnits="userSpaceOnUse">
<stop stop-color="#9A7DE8"/>
<stop offset="1" stop-color="#7852E0"/>
</linearGradient>
<clipPath id="clip0_3590_49052">
<rect width="11" height="11" fill="white" transform="translate(17.5 8.09766)"/>
</clipPath>
</defs>
</svg>
