<svg width="16" height="16" viewBox="0 0 16 16" fill="none" xmlns="http://www.w3.org/2000/svg">
<path fill-rule="evenodd" clip-rule="evenodd" d="M8.00002 9.00008C6.89542 9.00008 6.00002 8.10468 6.00002 7.00008C6.00002 5.89551 6.89542 5.00008 8.00002 5.00008C9.10462 5.00008 10 5.89551 10 7.00008C10 8.10468 9.10462 9.00008 8.00002 9.00008ZM8.00002 8.33341C8.73642 8.33341 9.33335 7.73648 9.33335 7.00008C9.33335 6.2637 8.73642 5.66675 8.00002 5.66675C7.26362 5.66675 6.66669 6.2637 6.66669 7.00008C6.66669 7.73648 7.26362 8.33341 8.00002 8.33341ZM11.7713 3.20347C13.854 5.25244 13.854 8.57448 11.7713 10.6234L8.00002 14.3334L4.22879 10.6234C2.14599 8.57448 2.14599 5.25244 4.22879 3.20347C6.31158 1.15451 9.68849 1.15451 11.7713 3.20347ZM11.3038 10.1482C13.121 8.36041 13.121 5.46648 11.3038 3.67872C9.48035 1.88498 6.51967 1.88498 4.69631 3.67872C2.87903 5.46648 2.87903 8.36041 4.69631 10.1482L8.00002 13.3982L11.3038 10.1482Z" fill="white"/>
</svg>
