<svg width="31" height="31" viewBox="0 0 31 31" fill="none" xmlns="http://www.w3.org/2000/svg">
<g clip-path="url(#clip0_24_591)">
<path opacity="0.8" d="M25.5237 1.14209H5.86855C3.29757 1.14209 1.21338 3.30072 1.21338 5.96352V25.2492C1.21338 27.912 3.29757 30.0707 5.86855 30.0707H25.5237C28.0947 30.0707 30.1789 27.912 30.1789 25.2492V5.96352C30.1789 3.30072 28.0947 1.14209 25.5237 1.14209Z" stroke="white"/>
<path d="M13.9794 17.3231C13.8234 17.1671 13.5698 17.1671 13.4138 17.3231L10.8962 19.8407V17.6063C10.8962 17.3855 10.717 17.2063 10.4962 17.2063C10.2754 17.2063 10.0962 17.3855 10.0962 17.6063V20.8063C10.0962 20.8583 10.1066 20.9103 10.1274 20.9591C10.1674 21.0567 10.2458 21.1351 10.3442 21.1759C10.3922 21.1951 10.4442 21.2063 10.4962 21.2063H13.6962C13.917 21.2063 14.0962 21.0271 14.0962 20.8063C14.0962 20.5855 13.917 20.4063 13.6962 20.4063H11.4618L13.9786 17.8895C14.1354 17.7327 14.1354 17.4799 13.9794 17.3231Z" fill="white"/>
<path d="M21.0492 10.0367C21.0004 10.0175 20.9484 10.0063 20.8964 10.0063H17.6964C17.4756 10.0063 17.2964 10.1855 17.2964 10.4063C17.2964 10.6271 17.4756 10.8063 17.6964 10.8063H19.9308L17.414 13.3231C17.258 13.4791 17.258 13.7327 17.414 13.8887C17.4916 13.9671 17.594 14.0063 17.6964 14.0063C17.7988 14.0063 17.9012 13.9671 17.9796 13.8895L20.4964 11.3719V13.6063C20.4964 13.8271 20.6756 14.0063 20.8964 14.0063C21.1172 14.0063 21.2964 13.8271 21.2964 13.6063V10.4063C21.2964 10.3543 21.286 10.3023 21.2652 10.2535C21.2252 10.1559 21.1468 10.0775 21.0492 10.0367Z" fill="white"/>
</g>
<defs>
<clipPath id="clip0_24_591">
<rect width="30" height="30" fill="white" transform="translate(0.696289 0.606445)"/>
</clipPath>
</defs>
</svg>
