<svg width="19" height="19" viewBox="0 0 19 19" fill="none" xmlns="http://www.w3.org/2000/svg">
<g clip-path="url(#clip0_23_335)">
<path d="M13.4609 18.6836C9.91416 18.6836 6.55592 17.2817 4.01361 14.7289C1.47129 12.1918 0.0693359 8.8388 0.0693359 5.29207C0.0693359 4.44994 0.435611 3.64429 1.06855 3.08461L3.09823 1.14918C3.41209 0.850946 3.82005 0.683594 4.25422 0.683594C4.80869 0.683594 5.32653 0.960829 5.64039 1.4212L7.7067 4.32443C7.91068 4.61208 8.02056 4.94694 8.02056 5.29207C8.02056 5.76822 7.81658 6.22844 7.45567 6.54751L5.79211 8.01231C5.69801 8.1064 5.50967 8.3418 5.50967 8.64003C5.50446 9.44553 6.14781 10.6069 7.14702 11.6059C8.14087 12.5999 9.30222 13.2433 10.1077 13.2433H10.1129C10.4112 13.2433 10.6466 13.0549 10.7564 12.9399L12.2054 11.2974C12.7599 10.6749 13.7538 10.5598 14.4285 11.041L17.3318 13.1178C17.7869 13.4264 18.0642 13.9443 18.0642 14.4987C18.0642 14.9277 17.902 15.341 17.5986 15.6549L15.6527 17.7002C15.1087 18.3173 14.3082 18.6836 13.4609 18.6836ZM4.25422 1.52572C4.03982 1.52572 3.83568 1.60955 3.67875 1.75591L1.63344 3.70191C1.16785 4.11508 0.906404 4.69055 0.906404 5.29207C0.906404 8.61383 2.21932 11.7577 4.60471 14.1378C6.99009 16.5284 10.1391 17.8466 13.4609 17.8466C14.0624 17.8466 14.6379 17.5851 15.0354 17.1299L16.9918 15.0742C17.1436 14.9173 17.222 14.7133 17.222 14.4987C17.222 14.2215 17.0807 13.9599 16.8505 13.803L13.9421 11.7262C13.6073 11.4856 13.1104 11.5433 12.8332 11.8571L11.3684 13.5153C10.997 13.8868 10.5629 14.0802 10.1183 14.0802C10.1129 14.0802 10.1129 14.0802 10.1077 14.0802C9.07724 14.0802 7.71712 13.3584 6.55592 12.197C5.38936 11.0306 4.66754 9.66529 4.67275 8.63482C4.67275 8.19008 4.87152 7.7507 5.22201 7.40022L6.9012 5.91458C7.08419 5.75244 7.18365 5.52746 7.18365 5.28686C7.18365 5.11429 7.13124 4.94694 7.02672 4.80564L4.94999 1.90242C4.79305 1.66181 4.53145 1.52572 4.25422 1.52572Z" fill="white"/>
<path d="M15.5535 8.2215H10.5317V3.19971H11.3687V7.38459H15.5535V8.2215Z" fill="white"/>
<path d="M16.3438 1.81665L16.9357 2.40836L11.2431 8.10094L10.6514 7.50923L16.3438 1.81665Z" fill="white"/>
</g>
<defs>
<clipPath id="clip0_23_335">
<rect width="18" height="18" fill="white" transform="translate(0.0380859 0.683594)"/>
</clipPath>
</defs>
</svg>
