<svg width="19" height="19" viewBox="0 0 19 19" fill="none" xmlns="http://www.w3.org/2000/svg">
<g clip-path="url(#clip0_23_322)">
<path d="M17.5179 6.24079L15.6381 4.95319V1.58359C15.6381 1.3449 15.5433 1.11598 15.3745 0.947198C15.2057 0.778415 14.9768 0.683594 14.7381 0.683594H3.33809C3.09939 0.683594 2.87048 0.778415 2.70169 0.947198C2.53291 1.11598 2.43809 1.3449 2.43809 1.58359V4.95319L0.560689 6.23959C0.399438 6.34805 0.267398 6.49457 0.176247 6.66619C0.0850969 6.83782 0.0376451 7.02926 0.038089 7.22359V17.4896C0.0392011 17.807 0.166178 18.1109 0.391152 18.3348C0.616127 18.5586 0.920721 18.6841 1.23809 18.6836H16.8381C17.1555 18.6841 17.4601 18.5586 17.685 18.3348C17.91 18.1109 18.037 17.807 18.0381 17.4896V7.22359C18.0386 7.02968 17.9914 6.83862 17.9007 6.66724C17.81 6.49585 17.6785 6.34941 17.5179 6.24079ZM17.382 17.7365L10.611 12.5966L17.4381 7.29589V17.4896C17.4377 17.575 17.4185 17.6593 17.382 17.7365ZM17.1798 6.73669L15.6381 7.93369V5.68069L17.1798 6.73669ZM3.33809 1.28359H14.7381C14.8177 1.28359 14.894 1.3152 14.9502 1.37146C15.0065 1.42772 15.0381 1.50403 15.0381 1.58359V8.39959L10.1163 12.221L9.93629 12.0845C9.67753 11.8891 9.36215 11.7835 9.03794 11.7835C8.71373 11.7835 8.39835 11.8891 8.13959 12.0845L7.95959 12.2207L3.03809 8.39959V1.58359C3.03809 1.50403 3.0697 1.42772 3.12596 1.37146C3.18222 1.3152 3.25852 1.28359 3.33809 1.28359ZM0.694189 17.7365C0.657662 17.6593 0.638512 17.575 0.638089 17.4896V7.29589L7.46519 12.5966L0.694189 17.7365ZM2.43809 5.68069V7.93369L0.896689 6.73699L2.43809 5.68069ZM1.23809 18.0836C1.23549 18.0837 1.23289 18.0837 1.23029 18.0836L8.50259 12.5636C8.65675 12.4471 8.84471 12.3841 9.03794 12.3841C9.23117 12.3841 9.41912 12.4471 9.57329 12.5636L16.8459 18.0836C16.8433 18.0837 16.8407 18.0837 16.8381 18.0836H1.23809Z" fill="white"/>
<path d="M9.03818 10.2836C9.72273 10.2838 10.3953 10.1038 10.9882 9.76164C11.0545 9.72061 11.1023 9.65535 11.1213 9.57971C11.1403 9.50407 11.1291 9.42399 11.0901 9.35645C11.0511 9.28891 10.9873 9.23923 10.9123 9.21793C10.8372 9.19662 10.7569 9.20538 10.6882 9.24234C10.0591 9.60555 9.32775 9.75104 8.60755 9.65624C7.88735 9.56145 7.21856 9.23167 6.70488 8.71806C6.1912 8.20444 5.86134 7.53569 5.76646 6.8155C5.67158 6.09532 5.81697 5.36395 6.1801 4.73481C6.54322 4.10568 7.10379 3.61394 7.77486 3.33585C8.44593 3.05777 9.19001 3.00887 9.8917 3.19675C10.5934 3.38463 11.2135 3.79878 11.6558 4.37498C12.0981 4.95118 12.338 5.65724 12.3382 6.38364V6.83364C12.3382 7.03256 12.2592 7.22332 12.1185 7.36397C11.9779 7.50463 11.7871 7.58364 11.5882 7.58364C11.3893 7.58364 11.1985 7.50463 11.0579 7.36397C10.9172 7.22332 10.8382 7.03256 10.8382 6.83364V4.88364C10.8382 4.80408 10.8066 4.72777 10.7503 4.67151C10.6941 4.61525 10.6178 4.58364 10.5382 4.58364C10.4586 4.58364 10.3823 4.61525 10.3261 4.67151C10.2698 4.72777 10.2382 4.80408 10.2382 4.88364V5.04564C9.9705 4.80527 9.63692 4.65063 9.28049 4.60168C8.92407 4.55272 8.56115 4.6117 8.23856 4.77099C7.91598 4.93029 7.64853 5.1826 7.47073 5.49537C7.29293 5.80814 7.21294 6.16701 7.24107 6.52568C7.2692 6.88435 7.40417 7.22636 7.62856 7.50759C7.85295 7.78881 8.15646 7.99634 8.49994 8.10339C8.84341 8.21045 9.21109 8.21212 9.55552 8.1082C9.89996 8.00427 10.2053 7.79951 10.4323 7.52034C10.5822 7.77527 10.8119 7.97372 11.0859 8.08503C11.3598 8.19634 11.6629 8.2143 11.9481 8.13614C12.2333 8.05798 12.4848 7.88806 12.6638 7.65263C12.8427 7.4172 12.9392 7.12937 12.9382 6.83364V6.38364C12.9382 5.6123 12.7095 4.85827 12.2809 4.21692C11.8524 3.57557 11.2433 3.0757 10.5307 2.78051C9.81802 2.48533 9.03386 2.4081 8.27733 2.55858C7.52081 2.70906 6.82589 3.0805 6.28047 3.62593C5.73504 4.17135 5.36361 4.86627 5.21312 5.62279C5.06264 6.37932 5.13987 7.16348 5.43506 7.87611C5.73024 8.58874 6.23011 9.19784 6.87146 9.62638C7.51281 10.0549 8.26684 10.2836 9.03818 10.2836ZM9.03818 7.58364C8.80085 7.58364 8.56884 7.51327 8.3715 7.38141C8.17416 7.24955 8.02035 7.06214 7.92953 6.84286C7.8387 6.62359 7.81494 6.38231 7.86124 6.14954C7.90754 5.91676 8.02183 5.70294 8.18966 5.53512C8.35748 5.36729 8.5713 5.253 8.80408 5.2067C9.03685 5.1604 9.27813 5.18416 9.4974 5.27499C9.71668 5.36581 9.90409 5.51962 10.0359 5.71696C10.1678 5.9143 10.2382 6.14631 10.2382 6.38364C10.2382 6.7019 10.1118 7.00713 9.88671 7.23217C9.66167 7.45722 9.35644 7.58364 9.03818 7.58364Z" fill="white"/>
</g>
<defs>
<clipPath id="clip0_23_322">
<rect width="18" height="18" fill="white" transform="translate(0.0380859 0.683594)"/>
</clipPath>
</defs>
</svg>
