<svg width="19" height="19" viewBox="0 0 19 19" fill="none" xmlns="http://www.w3.org/2000/svg">
<g clip-path="url(#clip0_23_326)">
<path fill-rule="evenodd" clip-rule="evenodd" d="M8.28921 2.8632C5.8447 2.8632 3.52938 4.2566 2.57027 6.40895C1.6901 8.38409 2.1353 10.0361 3.18708 11.5621C4.09052 12.8729 5.40698 14.0432 6.70513 15.1972C6.9591 15.423 7.21237 15.6482 7.46171 15.8737C7.68096 16.0705 7.97736 16.1832 8.28921 16.1832C8.57376 16.1832 8.84571 16.0893 9.05774 15.9232C9.29841 15.7346 9.65271 15.7691 9.84914 16.0001C10.0456 16.2312 10.0098 16.5713 9.76911 16.7599C9.35399 17.0851 8.83004 17.2632 8.28921 17.2632C7.69649 17.2632 7.12359 17.0492 6.69232 16.6616L6.69108 16.6605C6.45812 16.4498 6.21594 16.2348 5.96865 16.0153C4.67185 14.864 3.23441 13.5879 2.24887 12.158C1.04681 10.4141 0.469471 8.37739 1.53594 5.98417C2.68187 3.41258 5.41962 1.7832 8.28921 1.7832C11.5166 1.7832 14.8846 4.08007 15.5885 7.25063C15.6533 7.54232 15.4595 7.82917 15.1557 7.89132C14.8519 7.95353 14.553 7.76745 14.4883 7.47577C13.9073 4.85911 11.047 2.8632 8.28921 2.8632Z" fill="white"/>
<path fill-rule="evenodd" clip-rule="evenodd" d="M8.28856 6.82316C7.14949 6.82316 6.22607 7.70964 6.22607 8.80316C6.22607 9.59221 6.70682 10.2746 7.40494 10.5929C7.68556 10.7209 7.80496 11.043 7.67168 11.3124C7.53833 11.5817 7.20281 11.6964 6.92221 11.5684C5.84662 11.0779 5.10107 10.0246 5.10107 8.80316C5.10107 7.11317 6.52817 5.74316 8.28856 5.74316C9.44873 5.74316 10.4635 6.33851 11.0204 7.22574C11.1807 7.48118 11.095 7.81303 10.8289 7.96696C10.5628 8.12089 10.2171 8.0386 10.0568 7.78313C9.69496 7.20671 9.03818 6.82316 8.28856 6.82316Z" fill="white"/>
<path fill-rule="evenodd" clip-rule="evenodd" d="M12.0386 12.4031C12.0386 12.0054 12.3743 11.6831 12.7886 11.6831H12.7953C13.2095 11.6831 13.5453 12.0054 13.5453 12.4031C13.5453 12.8008 13.2095 13.1231 12.7953 13.1231H12.7886C12.3743 13.1231 12.0386 12.8008 12.0386 12.4031Z" fill="white"/>
<path fill-rule="evenodd" clip-rule="evenodd" d="M12.7885 9.34318C11.5218 9.34318 10.3305 10.0594 9.84067 11.1477C9.39494 12.1381 9.61132 12.9584 10.1614 13.7484C10.6447 14.4427 11.3488 15.0629 12.07 15.698C12.2124 15.8235 12.3556 15.9495 12.4978 16.0768C12.5722 16.1429 12.676 16.1832 12.7885 16.1832C12.9012 16.1832 13.0052 16.1426 13.0796 16.0765C13.2128 15.9579 13.3469 15.8402 13.4804 15.7231C14.2116 15.0815 14.9277 14.4531 15.4163 13.7497C15.9658 12.9585 16.1815 12.1368 15.7363 11.1477C15.2464 10.0594 14.0551 9.34318 12.7885 9.34318ZM8.80799 10.7193C9.48749 9.20955 11.1031 8.26318 12.7885 8.26318C14.4739 8.26318 16.0895 9.20955 16.769 10.7193C17.4038 12.1299 17.0534 13.3395 16.3523 14.3488C15.7803 15.1724 14.9434 15.9049 14.2163 16.5412C14.0883 16.6533 13.9636 16.7624 13.8445 16.8685C13.5574 17.1239 13.1785 17.2632 12.7885 17.2632C12.3985 17.2632 12.0196 17.1239 11.7325 16.8686L11.7313 16.8674C11.6056 16.7548 11.4736 16.6389 11.3378 16.5196C10.6181 15.8874 9.79214 15.1618 9.22597 14.3485C8.52397 13.3401 8.17237 12.1316 8.80799 10.7193Z" fill="white"/>
</g>
<defs>
<clipPath id="clip0_23_326">
<rect width="18" height="18" fill="white" transform="translate(0.0380859 0.683594)"/>
</clipPath>
</defs>
</svg>
