<svg width="31" height="31" viewBox="0 0 31 31" fill="none" xmlns="http://www.w3.org/2000/svg">
<g clip-path="url(#clip0_24_610)">
<path opacity="0.8" d="M25.5237 1.14209H5.86855C3.29757 1.14209 1.21338 3.30072 1.21338 5.96352V25.2492C1.21338 27.912 3.29757 30.0707 5.86855 30.0707H25.5237C28.0947 30.0707 30.1789 27.912 30.1789 25.2492V5.96352C30.1789 3.30072 28.0947 1.14209 25.5237 1.14209Z" stroke="white"/>
<path d="M15.6963 23.5056C17.5758 21.8696 19.0618 20.2058 20.1541 18.5141C21.2464 16.8224 21.7926 15.3594 21.7926 14.1249C21.7926 12.2954 21.2134 10.7854 20.0551 9.59486C18.8968 8.40453 17.4438 7.80936 15.6963 7.80936C13.9488 7.80936 12.4959 8.40453 11.3376 9.59486C10.1793 10.7854 9.6001 12.2954 9.6001 14.1249C9.6001 15.3594 10.1463 16.8224 11.2386 18.5141C12.3309 20.2058 13.8168 21.8696 15.6963 23.5056ZM15.6963 24.3844C15.54 24.3844 15.3836 24.3587 15.2271 24.3074C15.0708 24.2562 14.9265 24.1729 14.7943 24.0574C14.0828 23.4035 13.3617 22.6754 12.6308 21.8729C11.9002 21.0704 11.2364 20.2393 10.6396 19.3796C10.0428 18.5199 9.55368 17.6424 9.17235 16.7469C8.79085 15.8514 8.6001 14.9774 8.6001 14.1249C8.6001 12.0094 9.28893 10.2644 10.6666 8.89011C12.0441 7.51578 13.7207 6.82861 15.6963 6.82861C17.672 6.82861 19.3486 7.51578 20.7261 8.89011C22.1038 10.2644 22.7926 12.0094 22.7926 14.1249C22.7926 14.9774 22.6018 15.8482 22.2203 16.7374C21.839 17.6264 21.3531 18.5039 20.7626 19.3699C20.1723 20.236 19.5117 21.0671 18.7808 21.8631C18.0502 22.6593 17.3291 23.3843 16.6176 24.0381C16.4901 24.1536 16.3453 24.2402 16.1831 24.2979C16.0208 24.3555 15.8585 24.3844 15.6963 24.3844ZM15.6998 15.5594C16.145 15.5594 16.5249 15.4009 16.8396 15.0839C17.1544 14.7669 17.3118 14.3858 17.3118 13.9406C17.3118 13.4954 17.1533 13.1154 16.8361 12.8006C16.5191 12.4859 16.138 12.3286 15.6928 12.3286C15.2477 12.3286 14.8678 12.4871 14.5531 12.8041C14.2383 13.1211 14.0808 13.5022 14.0808 13.9474C14.0808 14.3925 14.2394 14.7725 14.5566 15.0874C14.8736 15.402 15.2547 15.5594 15.6998 15.5594Z" fill="white"/>
</g>
<defs>
<clipPath id="clip0_24_610">
<rect width="30" height="30" fill="white" transform="translate(0.696289 0.606445)"/>
</clipPath>
</defs>
</svg>
