<svg width="21" height="21" viewBox="0 0 21 21" fill="none" xmlns="http://www.w3.org/2000/svg">
<g clip-path="url(#clip0_34_295)">
<path d="M18.4061 7.45194L15.8071 2.95034C15.7693 2.88487 15.7077 2.83655 15.6352 2.81546L13.905 2.31308C13.9115 2.24827 13.9152 2.18304 13.9152 2.11784C13.9152 1.05065 13.0469 0.182373 11.9797 0.182373C10.9124 0.182373 10.0441 1.05065 10.0441 2.11788C10.0441 2.4903 10.1501 2.83831 10.3331 3.13382L7.94305 5.65944C7.89156 5.71386 7.86285 5.78593 7.86285 5.86081V11.9075C7.86285 12.4313 8.28899 12.8574 8.81281 12.8574H15.1464C15.6702 12.8574 16.0964 12.4313 16.0964 11.9075V9.71733L18.1107 8.5544C18.2969 8.4469 18.4302 8.27284 18.4861 8.06417C18.542 7.85558 18.5136 7.63811 18.4061 7.45194ZM10.6301 2.11788C10.6301 1.37374 11.2355 0.768311 11.9797 0.768311C12.7238 0.768311 13.3292 1.37374 13.3292 2.11788C13.3292 2.12718 13.3288 2.13647 13.3286 2.14573L12.4418 1.88823C12.3127 1.7771 12.1544 1.71862 11.9797 1.71862C11.7787 1.71862 11.5994 1.79577 11.4612 1.94175L10.7563 2.68667C10.6755 2.5137 10.6301 2.32104 10.6301 2.11788ZM15.5105 11.9075C15.5105 12.1082 15.3472 12.2715 15.1464 12.2715H8.81285C8.61211 12.2715 8.44883 12.1082 8.44883 11.9075V5.97745L10.7158 3.58187C11.0552 3.87526 11.4969 4.05335 11.9797 4.05335C12.1415 4.05335 12.2726 3.92218 12.2726 3.76038C12.2726 3.59858 12.1415 3.46741 11.9797 3.46741C11.6526 3.46741 11.3525 3.35042 11.1186 3.1562L11.8867 2.34456C11.9139 2.31577 11.94 2.30456 11.9797 2.30456C12.0193 2.30456 12.0453 2.31577 12.0725 2.34452L15.5105 5.97745V11.9075ZM17.9202 7.91253C17.9048 7.96999 17.8684 8.01769 17.8177 8.04694L16.0964 9.04077V5.86081C16.0964 5.78593 16.0678 5.71386 16.0163 5.65944L13.2457 2.73183L15.3586 3.34534L17.8987 7.74491C17.928 7.79558 17.9355 7.85511 17.9202 7.91253ZM16.3245 13.7492C16.0099 13.665 15.6821 13.7077 15.4016 13.8697L12.7665 15.3911C12.7657 15.2767 12.7505 15.1607 12.7196 15.0452C12.5232 14.3121 11.7669 13.8754 11.0337 14.0718L9.92715 14.3684C9.51445 14.4789 9.13387 14.4289 8.76387 14.2152L7.28875 13.3636C6.68399 13.0144 6.08473 13.2393 5.39094 13.4997C5.0118 13.642 4.58887 13.8005 4.09324 13.8982L4.07235 13.8203C4.03817 13.6927 3.95621 13.586 3.8416 13.5198C3.72688 13.4536 3.59348 13.4359 3.46598 13.4701L2.65227 13.6882C2.52469 13.7224 2.41801 13.8043 2.35184 13.919C2.28563 14.0337 2.26801 14.1671 2.30219 14.2946L3.76051 19.7372C3.79469 19.8648 3.87664 19.9715 3.99133 20.0377C4.06777 20.0818 4.15254 20.1044 4.23836 20.1044C4.28125 20.1044 4.32438 20.0988 4.36688 20.0874L5.18063 19.8693C5.43371 19.8015 5.58797 19.5482 5.5375 19.2947C6.70668 19.0424 7.44813 19.2534 8.44594 19.538C8.62899 19.5901 8.81824 19.6441 9.02059 19.6983C9.19813 19.7459 9.37332 19.7697 9.54567 19.7697C9.88008 19.7697 10.2038 19.6803 10.5126 19.502L16.6182 15.9767C16.8987 15.8149 17.0996 15.5525 17.1839 15.2378C17.2681 14.9233 17.2254 14.5955 17.0634 14.315C16.9015 14.0345 16.6391 13.8336 16.3245 13.7492ZM4.30297 19.4979L2.89164 14.2307L3.52985 14.0597L4.94121 19.3269L4.30297 19.4979ZM16.6179 15.0862C16.5741 15.2496 16.4702 15.3857 16.3252 15.4693L10.2196 18.9946C9.88637 19.1869 9.54379 19.2321 9.17223 19.1325C8.97442 19.0794 8.78738 19.0261 8.6066 18.9746C7.55719 18.6753 6.71375 18.435 5.38723 18.7276L4.24512 14.4651C4.77363 14.3569 5.22371 14.1883 5.59684 14.0483C6.27629 13.7933 6.64703 13.6697 6.99574 13.871L8.47086 14.7226C8.97524 15.0139 9.51625 15.085 10.0788 14.9343L11.1853 14.6378C11.6065 14.5249 12.0407 14.7757 12.1536 15.1968C12.2664 15.6179 12.0156 16.0523 11.5945 16.1651L9.97641 16.5987C9.70684 16.6709 9.44375 16.6734 9.19465 16.6062C9.03856 16.5641 8.87762 16.6565 8.83547 16.8127C8.79332 16.969 8.88578 17.1298 9.04199 17.1719C9.21266 17.218 9.38695 17.241 9.56367 17.241C9.74953 17.241 9.93813 17.2155 10.128 17.1646L11.7462 16.731C12.0554 16.6482 12.3116 16.4655 12.49 16.2272L15.6945 14.3771C15.8395 14.2933 16.0093 14.2713 16.1727 14.3152C16.3361 14.359 16.4722 14.4629 16.5559 14.6079C16.6396 14.753 16.6616 14.9228 16.6179 15.0862ZM12.2726 6.17194C12.7969 6.30315 13.1863 6.77827 13.1863 7.34265C13.1863 7.50444 13.0552 7.63561 12.8933 7.63561C12.7315 7.63561 12.6004 7.50444 12.6004 7.34265C12.6004 7.00038 12.3219 6.7219 11.9796 6.7219C11.654 6.7219 11.2738 6.88448 11.2738 7.34265C11.2738 7.80081 11.654 7.96339 11.9796 7.96339C12.7282 7.96339 13.2714 8.47085 13.2714 9.17003C13.2714 9.77417 12.8658 10.2352 12.2726 10.3494V10.7026C12.2726 10.8644 12.1415 10.9956 11.9797 10.9956C11.8178 10.9956 11.6867 10.8644 11.6867 10.7026V10.3407C11.1624 10.2095 10.773 9.73436 10.773 9.16999C10.773 9.00819 10.9041 8.87702 11.0659 8.87702C11.2278 8.87702 11.3589 9.00819 11.3589 9.16999C11.3589 9.51226 11.6373 9.79073 11.9796 9.79073C12.3052 9.79073 12.6855 9.62815 12.6855 9.16999C12.6855 8.71183 12.3052 8.54929 11.9796 8.54929C11.2311 8.54929 10.6879 8.04179 10.6879 7.34261C10.6879 6.73843 11.0935 6.27737 11.6867 6.16327V5.80999C11.6867 5.64819 11.8178 5.51702 11.9797 5.51702C12.1415 5.51702 12.2726 5.64819 12.2726 5.80999V6.17194Z" fill="white"/>
</g>
<defs>
<clipPath id="clip0_34_295">
<rect width="20" height="20" fill="white" transform="translate(0.399414 0.143311)"/>
</clipPath>
</defs>
</svg>
